<svg width="773" height="1068" viewBox="0 0 773 1068" fill="none" xmlns="http://www.w3.org/2000/svg">
<path d="M393.495 242.748C347.162 185.127 211.79 192.744 274.372 316.987C284.633 337.359 296.82 374.195 307.519 420.358C317.319 462.646 257.81 506.587 254.393 566.384C249.033 660.164 387.814 679.83 382.77 729.843C376.163 795.347 307.496 844.867 275.175 889.909C244.748 932.311 234.551 987.962 240.447 1039.93C250.79 1131.09 310.662 1210.9 397.719 1187.91C441.3 1176.4 491.692 1139.13 546.094 1064.63C570.418 1031.32 592.293 1003.28 612.225 979.887C663.526 919.681 676.407 1019.05 753.641 998.077C797.648 986.127 816.974 890.578 865.13 922.797C899.371 945.707 939.313 974.019 991.571 999.537C1083.34 1044.35 1174.28 1026.12 1155.88 926.064C1147.2 878.831 1114.15 813.362 1045.33 727.682C1001.29 672.851 1061.67 655.919 1042.86 573.592C1024.04 491.265 955.964 472.345 986.035 426.132L986.637 425.207C1009.56 389.985 1034 352.42 1035.47 294.854C1036.74 245.266 1021.09 201.573 996.127 172.147C969.412 140.656 932.032 125.505 893.309 136.96C854.455 148.453 814.25 186.73 782.11 262.159C760.92 311.89 709.065 228.611 651.705 257.217C594.345 285.823 613.988 375.922 569.717 362.159C492.815 338.251 447.76 310.232 393.495 242.748Z" stroke="white" stroke-width="6"/>
<path d="M630.308 562.164C623.229 553.308 606.163 561.701 608.762 572.926C611.722 585.706 623.217 599.912 626.492 612.625C632.813 637.17 626.5 646.758 613.624 664.892C609.006 671.385 607.474 679.917 608.392 687.89C610.003 701.878 619.153 714.144 632.404 710.651C639.037 708.903 646.698 703.205 654.955 691.798C658.647 686.698 661.968 682.405 664.995 678.825C677.906 662.414 696.04 666.214 703.492 670.166C708.716 673.693 714.811 678.051 722.78 681.986C736.776 688.895 752.517 682.354 747.778 670.779C741.083 654.427 692.365 600.995 718.819 580.471C731.108 570.937 726.967 559.595 723.154 555.072C719.073 550.231 713.373 547.893 707.48 549.635C701.567 551.383 694.928 564.123 690.592 568.796C674.586 586.048 658.982 597.317 630.308 562.164Z" stroke="white" stroke-width="6"/>
<path d="M304.447 338.917C247.946 225.661 371.666 218.738 414.143 271.561C466.115 336.127 508.529 360.598 579.958 380.787C620.436 393.097 602.815 310.73 655.274 284.342C707.733 257.953 755.199 333.394 774.749 288.068C804.529 219.281 841.629 184.665 877.351 174.644C912.757 164.426 946.947 178.567 971.251 207.633C993.96 234.82 1008.01 275.044 1006.3 320.592C1002.54 375.285 984.336 414.417 963.928 448.182C936.781 490.75 998.471 508.372 1015.13 583.476C1031.78 658.58 976.162 673.98 1015.6 723.555C1077.49 801.154 1107.01 860.326 1114.43 902.983C1130.83 993.841 1047.51 1010.25 963.368 969.538C915.177 946.379 878.129 920.907 846.386 900.806C802.296 871.817 784.407 959.138 744.029 970.473C673.38 990.071 661.299 900.05 614.277 955.106C595.797 976.666 575.567 1002.35 553.134 1032.73C502.429 1100.84 455.749 1133.64 415.953 1142.85C336.701 1163.41 282.241 1090.42 272.909 1007.12C267.624 959.491 277.043 908.518 304.938 869.646C335.522 827.024 398.575 781.102 404.019 719.289C408.462 673.213 281.855 654.716 286.403 568.785C289.183 513.772 343.002 473.184 333.952 434.133C324.102 391.626 313.344 357.668 304.447 338.917Z" stroke="white" stroke-width="6"/>
<path d="M335.845 361.752C285.579 259.866 397.448 253.592 435.972 301.43C485.529 362.842 525.221 383.667 591.051 400.04C627.664 410.837 612.137 336.467 659.624 312.351C707.11 288.236 750.069 355.579 767.972 314.788C795.38 252.843 829.332 221.975 861.869 213.437C893.905 204.467 924.843 217.537 946.679 244.073C967.083 268.923 979.494 305.546 977.314 346.913C971.255 398.058 959.712 438.48 942.005 470.423C917.803 509.228 972.996 525.464 987.423 593.103C1001.85 660.741 951.081 674.591 985.821 718.736C1040.64 787.981 1066.55 840.658 1072.68 878.602C1087.01 959.969 1011.43 974.558 935.074 938.114C891.041 917.411 856.961 894.878 827.778 877.664C787.84 852.018 771.371 930.849 734.683 941.554C670.722 959.754 659.508 879.366 616.812 929.125C599.803 948.797 581.239 972.048 560.716 999.429C513.755 1060.95 470.846 1089.21 434.895 1096.12C363.567 1114.22 314.648 1048.32 306.387 973.148C301.745 929.996 310.398 883.857 335.738 848.62C364.557 808.538 421.921 766.323 426.225 708.397C430.085 666.399 315.869 649.196 319.643 571.38C321.81 521.323 369.873 484.187 361.61 448.5C352.647 409.788 343.353 378.82 335.845 361.752Z" stroke="white" stroke-width="6"/>
<path d="M365.914 383.685C321.732 292.786 421.942 287.208 456.607 330.249C503.872 388.741 540.926 406.017 601.282 418.672C634.1 428.016 620.596 361.378 663.178 339.481C705.76 317.585 744.329 377.09 760.59 340.704C785.636 285.403 816.48 258.196 845.883 251.131C874.599 243.398 902.346 255.459 921.77 279.571C939.918 302.181 950.731 335.335 948.104 372.662C939.764 420.432 934.885 462.262 919.867 492.479C898.592 527.637 947.392 542.577 959.659 602.993C971.925 663.409 925.924 675.725 956.056 714.616C1003.95 775.782 1026.32 822.163 1031.19 855.53C1043.52 927.695 975.564 940.467 906.839 908.121C866.874 889.776 835.689 870.083 809.004 855.678C773.132 833.261 758.103 903.864 725.046 913.952C667.674 930.777 657.258 859.738 618.845 904.345C603.288 922.186 586.371 943.077 567.74 967.534C524.478 1022.65 485.284 1046.45 453.122 1051.06C389.605 1066.73 346.1 1007.65 338.85 940.343C334.818 901.521 342.693 860.061 365.499 828.355C392.581 790.694 444.329 752.078 447.468 697.844C450.725 659.783 348.692 643.747 351.652 573.781C353.18 528.509 395.548 494.729 388.036 462.279C379.92 427.223 372.057 399.134 365.914 383.685Z" stroke="white" stroke-width="6"/>
<path d="M396.916 405.317C358.844 325.401 447.229 320.572 478.003 358.825C522.932 414.417 557.296 428.158 612.088 437.12C641.062 445.027 629.569 386.126 667.166 366.474C704.763 346.822 738.911 398.496 753.485 366.531C776.101 317.896 803.774 294.374 829.992 288.799C855.339 282.319 879.855 293.384 896.847 315.076C912.723 335.453 921.937 365.138 918.887 398.417C908.302 442.799 910.123 486.039 897.833 514.52C879.537 546.016 921.874 559.682 931.99 612.87C942.106 666.057 900.955 676.813 926.448 710.455C967.361 763.552 986.182 803.638 989.809 832.423C1000.16 895.379 939.935 906.296 878.936 878.019C843.094 862.015 814.844 845.151 790.693 833.545C758.934 814.345 745.405 876.698 716.038 886.152C665.356 901.57 655.719 839.889 621.672 879.317C607.603 895.314 592.371 913.834 575.674 935.352C536.208 984.039 500.804 1003.34 472.483 1005.63C416.888 1018.83 378.839 966.562 372.577 907.133C369.141 872.646 376.203 835.877 396.423 807.718C421.704 772.497 467.733 737.512 469.674 686.979C472.303 652.863 382.61 637.944 384.714 575.842C385.577 535.364 422.164 504.965 415.398 475.754C408.126 444.357 401.69 419.147 396.916 405.317Z" stroke="white" stroke-width="6"/>
<path d="M428.341 428.3C396.438 359.554 472.981 355.426 499.832 388.794C542.375 441.344 574.028 451.502 623.233 456.72C648.353 463.153 638.91 412.117 671.526 394.725C704.142 377.334 733.826 421.05 746.73 393.561C766.942 351.679 791.451 331.87 814.482 327.779C836.457 322.55 857.731 332.579 872.274 351.797C885.861 369.889 893.455 396.038 889.962 425.203C877.113 466.111 885.597 510.672 876.02 537.366C860.687 565.147 896.544 577.484 904.473 623.328C912.403 669.172 876.105 678.373 896.934 706.682C930.827 751.576 946.071 785.273 948.431 809.416C956.754 863.027 904.276 872.106 851.037 847.995C819.338 834.387 794.042 820.403 772.439 811.635C744.813 795.711 732.748 849.696 707.072 858.515C663.082 872.526 654.267 820.335 624.57 854.524C611.982 868.656 598.427 884.775 583.654 903.321C547.964 945.501 516.347 960.296 491.872 960.272C444.202 971.014 411.65 925.693 406.416 874.264C403.599 844.185 409.87 812.177 427.517 787.61C451.012 754.886 491.332 723.574 492.106 676.844C494.13 646.741 416.805 633.027 418.094 578.914C418.318 543.312 449.136 516.333 443.137 490.424C436.729 462.755 431.739 440.479 428.341 428.3Z" stroke="white" stroke-width="6"/>
<path d="M458.389 450.239C432.578 392.488 497.441 389.061 520.43 417.629C560.683 467.27 589.695 473.875 633.419 475.368C654.738 480.348 647.319 437.049 675.021 421.879C702.723 406.709 728.011 442.58 739.27 419.501C757.114 384.27 778.51 368.127 798.402 365.513C817.052 361.524 835.129 370.547 847.256 387.338C858.585 403.192 864.579 425.871 860.639 450.993C845.504 488.527 860.675 534.518 853.793 559.489C841.393 583.622 870.847 594.665 876.613 633.28C882.379 671.896 850.859 679.56 867.072 702.609C894.022 739.415 905.726 766.81 906.826 786.371C913.15 830.772 868.304 838.028 822.71 818.017C795.085 806.768 772.686 795.626 753.585 789.67C730.032 776.979 719.411 822.728 697.374 830.93C659.984 843.565 651.964 800.732 626.559 829.764C615.427 842.063 603.522 855.82 590.645 871.439C558.661 907.211 530.765 917.53 510.084 915.198C470.24 923.5 443.11 885.008 438.886 841.449C436.678 815.703 442.168 788.378 457.276 767.345C479.03 737.04 513.724 709.329 513.327 666.287C514.745 640.123 449.623 627.57 450.093 581.313C449.674 550.498 474.786 526.876 469.537 504.205C463.977 480.194 460.419 460.797 458.389 450.239Z" stroke="white" stroke-width="6"/>
<path d="M489.355 471.881C469.657 425.129 522.681 422.451 541.773 446.229C579.681 492.992 605.983 496.059 644.119 493.854C661.589 497.393 656.179 461.841 678.889 448.917C701.599 435.993 722.457 464.022 732.026 445.37C747.434 416.816 765.654 404.365 782.357 403.245C797.634 400.512 812.479 408.539 822.173 422.91C831.23 436.528 835.626 455.736 831.269 476.804C813.915 510.943 835.776 558.389 831.627 581.632C822.209 602.102 845.198 611.868 848.816 643.244C852.433 674.62 825.771 680.72 837.345 698.509C857.313 727.23 865.469 748.317 865.32 763.286C869.661 798.463 832.561 803.859 794.706 787.921C771.214 779.015 751.76 770.703 735.203 767.552C715.771 758.082 706.654 795.571 688.314 803.14C657.625 814.367 650.391 780.905 629.36 804.752C619.72 815.205 609.504 826.587 598.565 839.262C570.391 868.59 546.289 874.4 529.447 869.739C497.53 875.569 475.859 843.898 472.623 808.224C471.011 786.817 475.685 764.188 488.203 746.707C508.138 718.842 537.1 694.764 535.498 655.415C536.288 633.197 483.515 621.76 483.13 583.373C482.046 557.354 501.373 537.113 496.87 517.681C492.153 497.33 490.02 480.816 489.355 471.881Z" stroke="white" stroke-width="6"/>
<path d="M519.709 493.717C506.109 457.985 547.557 455.97 562.808 474.933C598.498 518.798 622.222 518.275 654.966 512.294C668.666 514.363 665.3 486.556 683.15 475.835C701 465.115 717.482 485.269 725.44 471.025C738.537 449.116 753.692 440.325 767.292 440.678C779.276 439.177 790.948 446.19 798.233 458.13C805.037 469.505 807.825 485.241 802.99 502.27C783.261 533.066 811.877 581.99 810.408 603.529C803.894 620.36 820.512 628.818 821.942 652.957C823.373 677.095 801.427 681.676 808.383 694.186C821.412 714.79 826.019 729.555 824.592 739.933C826.911 765.883 797.365 769.48 767.089 757.675C747.627 751.147 731.033 745.699 716.942 745.385C701.552 739.17 693.831 768.425 679.087 775.396C654.93 785.273 648.499 761.191 631.699 779.892L631.227 780.389C623.156 788.868 614.715 797.734 605.813 807.301C581.256 830.238 560.815 831.571 547.738 824.595C523.585 828.001 507.321 803.179 505.116 775.383C504.128 758.311 508.047 740.363 518.064 726.407C536.33 700.929 559.742 680.425 556.987 644.742C557.187 626.459 516.527 616.217 515.345 585.687C513.631 564.454 527.296 547.552 523.547 531.358C519.683 514.667 518.994 501.032 519.709 493.717Z" stroke="white" stroke-width="6"/>
<path d="M551.067 516.762C543.633 492.205 573.193 490.903 584.508 504.977C617.759 545.763 638.735 541.676 665.843 531.979C675.673 532.581 674.351 512.648 687.196 504.198C700.042 495.749 712.048 507.951 718.321 498.189C728.989 483.04 740.958 477.967 751.353 479.802C759.952 479.552 768.37 485.528 773.202 494.989C777.714 504.073 778.886 516.266 773.624 529.172C751.685 556.461 786.899 606.645 788.143 626.376C784.6 639.481 794.726 646.608 793.982 663.397C793.237 680.186 776.174 683.205 778.47 690.386C784.481 702.791 785.517 711.172 782.832 716.908C783.136 733.513 761.369 735.265 738.885 727.619C723.59 723.483 709.973 720.908 698.45 723.419C687.209 720.472 680.97 741.348 669.937 747.672C652.502 756.129 646.897 741.533 634.472 754.986C627.753 761.742 620.848 768.362 613.711 775.138C592.974 791.554 576.349 788.384 567.131 779.116C550.927 780.059 540.169 762.186 538.985 742.398C538.611 729.74 541.729 716.562 549.158 706.206C565.599 683.254 583.269 666.444 579.346 634.596C578.937 620.336 550.685 611.297 548.685 588.768C546.332 572.422 554.214 558.954 551.232 546.071C548.234 533.115 548.983 522.422 551.067 516.762Z" stroke="white" stroke-width="6"/>
<path d="M582.313 538.355C581.008 524.89 598.774 524.297 606.186 533.526C637.063 571.329 655.327 563.684 676.857 550.268C682.848 549.409 683.557 537.286 691.438 531.085C699.32 524.884 706.884 529.183 711.489 523.869C719.753 515.432 728.567 514.054 735.788 517.371C741.029 518.368 746.22 523.322 748.617 530.329C750.855 537.149 750.422 545.833 744.727 554.652C720.566 578.493 762.405 630.045 766.354 648.012C765.765 657.43 769.444 663.243 766.533 672.738C763.622 682.233 751.397 683.699 749.057 685.58C748.088 689.835 745.571 691.866 741.629 692.987C739.927 700.307 725.873 700.223 711.116 696.706C699.949 694.944 689.276 695.227 680.297 700.557C673.172 700.862 668.401 713.425 661.049 719.118C650.282 726.175 645.492 721.006 637.406 729.252C632.166 734.153 626.937 738.387 621.72 742.208C604.759 752.153 591.906 744.488 586.513 732.915C578.199 731.406 572.906 720.425 572.737 708.58C572.973 700.299 575.298 691.849 580.159 685.063C594.802 664.586 606.777 651.426 601.683 623.337C600.665 613.059 584.726 605.201 581.907 590.603C578.913 579.095 581.049 569.022 578.826 559.414C576.684 550.156 578.864 542.376 582.313 538.355Z" stroke="white" stroke-width="6"/>
</svg>
