<svg width="324" height="414" viewBox="0 0 324 414" fill="none" xmlns="http://www.w3.org/2000/svg">
<path fill-rule="evenodd" clip-rule="evenodd" d="M-33 -51.755C-93.0637 -51.755 -141.755 -3.06369 -141.755 57C-141.755 117.064 -93.0637 165.755 -33 165.755C27.0637 165.755 75.755 117.064 75.755 57C75.755 -3.06369 27.0637 -51.755 -33 -51.755ZM-137.026 57C-137.026 -0.45224 -90.4522 -47.0265 -33 -47.0265C24.4523 -47.0265 71.0265 -0.45224 71.0265 57C71.0265 114.452 24.4523 161.027 -33 161.027C-90.4522 161.027 -137.026 114.452 -137.026 57Z" fill="url(#paint0_linear_2_1305)"/>
<path fill-rule="evenodd" clip-rule="evenodd" d="M-33 -69.4867C-102.857 -69.4867 -159.487 -12.8567 -159.487 57C-159.487 126.857 -102.857 183.487 -33 183.487C36.8568 183.487 93.4868 126.857 93.4868 57C93.4868 -12.8567 36.8568 -69.4867 -33 -69.4867ZM-154.758 57C-154.758 -10.2452 -100.245 -64.7583 -33 -64.7583C34.2452 -64.7583 88.7583 -10.2452 88.7583 57C88.7583 124.245 34.2452 178.758 -33 178.758C-100.245 178.758 -154.758 124.245 -154.758 57Z" fill="url(#paint1_linear_2_1305)"/>
<path fill-rule="evenodd" clip-rule="evenodd" d="M-177.219 57C-177.219 -22.6497 -112.65 -87.2185 -33 -87.2185C46.6497 -87.2185 111.219 -22.6497 111.219 57C111.219 136.65 46.6497 201.219 -33 201.219C-112.65 201.219 -177.219 136.65 -177.219 57ZM-33 -82.4901C-110.038 -82.4901 -172.49 -20.0382 -172.49 57C-172.49 134.038 -110.038 196.49 -33 196.49C44.0383 196.49 106.49 134.038 106.49 57C106.49 -20.0382 44.0383 -82.4901 -33 -82.4901Z" fill="url(#paint2_linear_2_1305)"/>
<path fill-rule="evenodd" clip-rule="evenodd" d="M-194.95 57C-194.95 -32.4427 -122.443 -104.95 -33 -104.95C56.4427 -104.95 128.95 -32.4427 128.95 57C128.95 146.443 56.4427 218.95 -33 218.95C-122.443 218.95 -194.95 146.443 -194.95 57ZM-33 -100.222C-119.831 -100.222 -190.222 -29.8312 -190.222 57C-190.222 143.831 -119.831 214.222 -33 214.222C53.8312 214.222 124.222 143.831 124.222 57C124.222 -29.8312 53.8312 -100.222 -33 -100.222Z" fill="url(#paint3_linear_2_1305)"/>
<path fill-rule="evenodd" clip-rule="evenodd" d="M-212.682 57C-212.682 -42.2357 -132.236 -122.682 -33 -122.682C66.2357 -122.682 146.682 -42.2357 146.682 57C146.682 156.236 66.2357 236.682 -33 236.682C-132.236 236.682 -212.682 156.236 -212.682 57ZM-33 -117.954C-129.624 -117.954 -207.954 -39.6242 -207.954 57C-207.954 153.624 -129.624 231.954 -33 231.954C63.6243 231.954 141.954 153.624 141.954 57C141.954 -39.6242 63.6243 -117.954 -33 -117.954Z" fill="url(#paint4_linear_2_1305)"/>
<path fill-rule="evenodd" clip-rule="evenodd" d="M-33 -140.414C-142.029 -140.414 -230.414 -52.0287 -230.414 57C-230.414 166.029 -142.029 254.414 -33 254.414C76.0287 254.414 164.414 166.029 164.414 57C164.414 -52.0287 76.0287 -140.414 -33 -140.414ZM-225.685 57C-225.685 -49.4172 -139.417 -135.685 -33 -135.685C73.4172 -135.685 159.685 -49.4172 159.685 57C159.685 163.417 73.4172 249.685 -33 249.685C-139.417 249.685 -225.685 163.417 -225.685 57Z" fill="url(#paint5_linear_2_1305)"/>
<path fill-rule="evenodd" clip-rule="evenodd" d="M-248.146 57C-248.146 -61.8217 -151.822 -158.146 -33 -158.146C85.8217 -158.146 182.146 -61.8217 182.146 57C182.146 175.822 85.8217 272.146 -33 272.146C-151.822 272.146 -248.146 175.822 -248.146 57ZM-33 -153.417C-149.21 -153.417 -243.417 -59.2102 -243.417 57C-243.417 173.21 -149.21 267.417 -33 267.417C83.2102 267.417 177.417 173.21 177.417 57C177.417 -59.2102 83.2102 -153.417 -33 -153.417Z" fill="url(#paint6_linear_2_1305)"/>
<path fill-rule="evenodd" clip-rule="evenodd" d="M-33 -175.877C-161.615 -175.877 -265.877 -71.6147 -265.877 57C-265.877 185.615 -161.615 289.878 -33 289.878C95.6147 289.878 199.878 185.615 199.878 57C199.878 -71.6147 95.6147 -175.877 -33 -175.877ZM-261.149 57C-261.149 -69.0032 -159.003 -171.149 -33 -171.149C93.0032 -171.149 195.149 -69.0032 195.149 57C195.149 183.003 93.0032 285.149 -33 285.149C-159.003 285.149 -261.149 183.003 -261.149 57Z" fill="url(#paint7_linear_2_1305)"/>
<path fill-rule="evenodd" clip-rule="evenodd" d="M-283.609 57C-283.609 -81.4077 -171.408 -193.609 -33 -193.609C105.408 -193.609 217.609 -81.4077 217.609 57C217.609 195.408 105.408 307.609 -33 307.609C-171.408 307.609 -283.609 195.408 -283.609 57ZM-33 -188.881C-168.796 -188.881 -278.881 -78.7962 -278.881 57C-278.881 192.796 -168.796 302.881 -33 302.881C102.796 302.881 212.881 192.796 212.881 57C212.881 -78.7962 102.796 -188.881 -33 -188.881Z" fill="url(#paint8_linear_2_1305)"/>
<path fill-rule="evenodd" clip-rule="evenodd" d="M-33 -211.341C-181.201 -211.341 -301.341 -91.2007 -301.341 57C-301.341 205.201 -181.201 325.341 -33 325.341C115.201 325.341 235.341 205.201 235.341 57C235.341 -91.2007 115.201 -211.341 -33 -211.341ZM-296.613 57C-296.613 -88.5892 -178.589 -206.613 -33 -206.613C112.589 -206.613 230.613 -88.5892 230.613 57C230.613 202.589 112.589 320.613 -33 320.613C-178.589 320.613 -296.613 202.589 -296.613 57Z" fill="url(#paint9_linear_2_1305)"/>
<path fill-rule="evenodd" clip-rule="evenodd" d="M-319.073 57C-319.073 -100.994 -190.994 -229.073 -33 -229.073C124.994 -229.073 253.073 -100.994 253.073 57C253.073 214.994 124.994 343.073 -33 343.073C-190.994 343.073 -319.073 214.994 -319.073 57ZM-33 -224.344C-188.382 -224.344 -314.344 -98.3822 -314.344 57C-314.344 212.382 -188.382 338.344 -33 338.344C122.382 338.344 248.344 212.382 248.344 57C248.344 -98.3822 122.382 -224.344 -33 -224.344Z" fill="url(#paint10_linear_2_1305)"/>
<path fill-rule="evenodd" clip-rule="evenodd" d="M-33 -246.805C-200.787 -246.805 -336.805 -110.787 -336.805 57C-336.805 224.787 -200.787 360.805 -33 360.805C134.787 360.805 270.805 224.787 270.805 57C270.805 -110.787 134.787 -246.805 -33 -246.805ZM-332.076 57C-332.076 -108.175 -198.175 -242.076 -33 -242.076C132.175 -242.076 266.076 -108.175 266.076 57C266.076 222.175 132.175 356.076 -33 356.076C-198.175 356.076 -332.076 222.175 -332.076 57Z" fill="url(#paint11_linear_2_1305)"/>
<path fill-rule="evenodd" clip-rule="evenodd" d="M-354.536 57C-354.536 -120.58 -210.58 -264.536 -33 -264.536C144.58 -264.536 288.536 -120.58 288.536 57C288.536 234.58 144.58 378.536 -33 378.536C-210.58 378.536 -354.536 234.58 -354.536 57ZM-33 -259.808C-207.968 -259.808 -349.808 -117.968 -349.808 57C-349.808 231.968 -207.968 373.808 -33 373.808C141.968 373.808 283.808 231.968 283.808 57C283.808 -117.968 141.968 -259.808 -33 -259.808Z" fill="url(#paint12_linear_2_1305)"/>
<path fill-rule="evenodd" clip-rule="evenodd" d="M-33 -282.268C-220.373 -282.268 -372.268 -130.373 -372.268 57C-372.268 244.373 -220.373 396.268 -33 396.268C154.373 396.268 306.268 244.373 306.268 57C306.268 -130.373 154.373 -282.268 -33 -282.268ZM-367.54 57C-367.54 -127.761 -217.761 -277.54 -33 -277.54C151.761 -277.54 301.54 -127.761 301.54 57C301.54 241.761 151.761 391.54 -33 391.54C-217.761 391.54 -367.54 241.761 -367.54 57Z" fill="url(#paint13_linear_2_1305)"/>
<path fill-rule="evenodd" clip-rule="evenodd" d="M-390 57C-390 -140.166 -230.166 -300 -33 -300C164.166 -300 324 -140.166 324 57C324 254.166 164.166 414 -33 414C-230.166 414 -390 254.166 -390 57ZM-33 -295.272C-227.554 -295.272 -385.272 -137.554 -385.272 57C-385.272 251.554 -227.554 409.272 -33 409.272C161.554 409.272 319.272 251.554 319.272 57C319.272 -137.554 161.554 -295.272 -33 -295.272Z" fill="url(#paint14_linear_2_1305)"/>
<defs>
<linearGradient id="paint0_linear_2_1305" x1="-33" y1="57" x2="347" y2="231.5" gradientUnits="userSpaceOnUse">
<stop stop-color="#9D1D52" stop-opacity="0.15"/>
<stop offset="1" stop-color="#9D1D52" stop-opacity="0"/>
</linearGradient>
<linearGradient id="paint1_linear_2_1305" x1="-33" y1="57" x2="347" y2="231.5" gradientUnits="userSpaceOnUse">
<stop stop-color="#9D1D52" stop-opacity="0.15"/>
<stop offset="1" stop-color="#9D1D52" stop-opacity="0"/>
</linearGradient>
<linearGradient id="paint2_linear_2_1305" x1="-33" y1="57" x2="347" y2="231.5" gradientUnits="userSpaceOnUse">
<stop stop-color="#9D1D52" stop-opacity="0.15"/>
<stop offset="1" stop-color="#9D1D52" stop-opacity="0"/>
</linearGradient>
<linearGradient id="paint3_linear_2_1305" x1="-33" y1="57" x2="347" y2="231.5" gradientUnits="userSpaceOnUse">
<stop stop-color="#9D1D52" stop-opacity="0.15"/>
<stop offset="1" stop-color="#9D1D52" stop-opacity="0"/>
</linearGradient>
<linearGradient id="paint4_linear_2_1305" x1="-33" y1="57" x2="347" y2="231.5" gradientUnits="userSpaceOnUse">
<stop stop-color="#9D1D52" stop-opacity="0.15"/>
<stop offset="1" stop-color="#9D1D52" stop-opacity="0"/>
</linearGradient>
<linearGradient id="paint5_linear_2_1305" x1="-33" y1="57" x2="347" y2="231.5" gradientUnits="userSpaceOnUse">
<stop stop-color="#9D1D52" stop-opacity="0.15"/>
<stop offset="1" stop-color="#9D1D52" stop-opacity="0"/>
</linearGradient>
<linearGradient id="paint6_linear_2_1305" x1="-33" y1="57" x2="347" y2="231.5" gradientUnits="userSpaceOnUse">
<stop stop-color="#9D1D52" stop-opacity="0.15"/>
<stop offset="1" stop-color="#9D1D52" stop-opacity="0"/>
</linearGradient>
<linearGradient id="paint7_linear_2_1305" x1="-33" y1="57" x2="347" y2="231.5" gradientUnits="userSpaceOnUse">
<stop stop-color="#9D1D52" stop-opacity="0.15"/>
<stop offset="1" stop-color="#9D1D52" stop-opacity="0"/>
</linearGradient>
<linearGradient id="paint8_linear_2_1305" x1="-33" y1="57" x2="347" y2="231.5" gradientUnits="userSpaceOnUse">
<stop stop-color="#9D1D52" stop-opacity="0.15"/>
<stop offset="1" stop-color="#9D1D52" stop-opacity="0"/>
</linearGradient>
<linearGradient id="paint9_linear_2_1305" x1="-33" y1="57" x2="347" y2="231.5" gradientUnits="userSpaceOnUse">
<stop stop-color="#9D1D52" stop-opacity="0.15"/>
<stop offset="1" stop-color="#9D1D52" stop-opacity="0"/>
</linearGradient>
<linearGradient id="paint10_linear_2_1305" x1="-33" y1="57" x2="347" y2="231.5" gradientUnits="userSpaceOnUse">
<stop stop-color="#9D1D52" stop-opacity="0.15"/>
<stop offset="1" stop-color="#9D1D52" stop-opacity="0"/>
</linearGradient>
<linearGradient id="paint11_linear_2_1305" x1="-33" y1="57" x2="347" y2="231.5" gradientUnits="userSpaceOnUse">
<stop stop-color="#9D1D52" stop-opacity="0.15"/>
<stop offset="1" stop-color="#9D1D52" stop-opacity="0"/>
</linearGradient>
<linearGradient id="paint12_linear_2_1305" x1="-33" y1="57" x2="347" y2="231.5" gradientUnits="userSpaceOnUse">
<stop stop-color="#9D1D52" stop-opacity="0.15"/>
<stop offset="1" stop-color="#9D1D52" stop-opacity="0"/>
</linearGradient>
<linearGradient id="paint13_linear_2_1305" x1="-33" y1="57" x2="347" y2="231.5" gradientUnits="userSpaceOnUse">
<stop stop-color="#9D1D52" stop-opacity="0.15"/>
<stop offset="1" stop-color="#9D1D52" stop-opacity="0"/>
</linearGradient>
<linearGradient id="paint14_linear_2_1305" x1="-33" y1="57" x2="347" y2="231.5" gradientUnits="userSpaceOnUse">
<stop stop-color="#9D1D52" stop-opacity="0.15"/>
<stop offset="1" stop-color="#9D1D52" stop-opacity="0"/>
</linearGradient>
</defs>
</svg>
